# Blender 3.6.2
# www.blender.org
mtllib simple folded shirt.mtl
o Folded_Shirt
v -0.669343 0.860907 -0.950231
v 0.607712 0.860907 -0.950231
v -1.000000 0.917155 -0.852488
v 1.000000 1.000000 0.915362
v 1.000000 0.915361 1.000000
v 1.000000 0.792899 1.000000
v 1.000000 0.708260 0.915362
v 1.000000 1.000000 -0.863570
v -1.000000 1.000000 -0.882131
v 0.607712 1.000000 -1.000000
v -0.669343 1.000000 -1.000000
v -0.038240 1.000000 -0.937817
v -1.000000 0.708260 -0.773885
v 1.000000 0.708260 -0.761120
v -0.038240 0.860907 -0.888048
v -0.959933 0.860907 -0.844904
v -1.000000 0.801589 -0.809638
v -1.000000 0.708260 0.915361
v -1.000000 1.000000 0.915361
v -1.000000 0.915361 1.000000
v -1.000000 0.792899 1.000000
v -1.000000 0.915361 0.915361
v -1.000000 0.792899 0.915361
v -0.959933 0.855635 0.850204
v 1.000000 0.924180 -0.836441
v 1.000000 0.797636 -0.791965
v 0.940307 0.860907 -0.834561
v 1.000000 0.792126 0.915362
v 1.000000 0.918527 0.915362
v -0.959933 0.860907 -0.785070
v 0.940307 0.860907 -0.774726
v 0.936802 0.855577 0.837759
vn 0.0924 -0.3355 -0.9375
vn 0.3112 -0.3202 -0.8948
vn -0.0000 1.0000 -0.0000
vn -0.0000 0.7071 0.7071
vn -0.0000 -0.7071 0.7071
vn -0.0000 -0.0000 1.0000
vn -0.3185 -0.3244 -0.8907
vn -0.0000 -1.0000 -0.0000
vn -0.0903 -0.3355 -0.9377
vn 1.0000 -0.0000 -0.0000
vn -1.0000 -0.0000 -0.0000
vn 0.7171 0.6969 0.0030
vn -0.8518 -0.0000 -0.5238
vn -0.8230 -0.5681 -0.0012
vn 0.0068 -0.3425 -0.9395
vn 0.7170 -0.6971 -0.0015
vn 0.7754 -0.0000 -0.6315
vn 0.0071 0.3238 -0.9461
vn -0.8356 0.5494 0.0023
vt 0.378396 1.000859
vt 0.486453 0.990212
vt 0.597052 1.000859
vt 0.664220 0.977500
vt 0.653999 0.981054
vt 0.321781 0.672913
vt 0.664220 0.672913
vt 0.321781 0.980678
vt 0.321781 0.643929
vt 0.664220 0.643929
vt 0.671219 0.434376
vt 0.328781 0.434376
vt 0.328781 0.414009
vt 0.671219 0.414009
vt 0.321781 0.608127
vt 0.664220 0.608127
vt 0.329190 0.983319
vt 0.653417 0.977688
vt 0.328781 0.007521
vt 0.671219 0.010593
vt 0.729005 0.672913
vt 0.710382 0.672913
vt 0.714514 0.658421
vt 0.271487 0.658421
vt 0.307289 0.658421
vt 0.705323 0.966371
vt 0.688558 0.970910
vt 0.695997 0.686283
vt 0.256996 0.672913
vt 0.281769 0.969231
vt 0.256996 0.962144
vt 0.307541 0.976604
vt 0.321781 0.672913
vt 0.321781 0.980678
vt 0.682312 0.672913
vt 0.677487 0.973908
vt 0.289780 0.674205
vt 0.271487 0.658421
vt 0.297512 0.973648
vt 0.328781 0.028993
vt 0.671219 0.027702
vt 0.729005 0.959959
vt 0.678711 0.658421
vt 0.335641 0.042584
vt 0.660399 0.039904
vt 0.653785 0.964434
vt 0.329027 0.967114
s 0
usemtl Material
f 11/1/1 12/2/1 15/2/1 1/1/1
f 10/3/2 8/4/2 25/4/2 27/5/2 2/3/2
f 19/6/3 4/7/3 8/4/3 10/3/3 12/2/3 11/1/3 9/8/3
f 4/7/4 19/6/4 20/9/4 5/10/4
f 6/11/5 21/12/5 18/13/5 7/14/5
f 21/15/6 6/16/6 5/10/6 20/9/6
f 9/8/7 11/1/7 1/1/7 16/17/7 3/8/7
f 2/3/8 27/18/8 16/17/8 1/1/8 15/2/8
f 12/2/9 10/3/9 2/3/9 15/2/9
f 13/19/8 14/20/8 7/14/8 18/13/8
f 7/21/10 28/22/10 6/23/10
f 23/24/11 21/12/11 20/9/11 22/25/11
f 28/22/12 26/26/12 31/27/12 32/28/12
f 18/29/11 23/24/11 17/30/11 13/31/11
f 3/32/11 22/25/11 19/33/11 9/34/11
f 18/13/11 21/12/11 23/24/11
f 20/9/11 19/33/11 22/25/11
f 4/7/10 29/35/10 25/36/10 8/4/10
f 22/25/13 24/37/13 23/38/13
f 16/39/14 24/37/14 22/25/14 3/32/14
f 13/19/15 17/40/15 26/41/15 14/20/15
f 32/28/16 27/27/16 25/36/16 29/35/16
f 26/26/10 28/22/10 7/21/10 14/42/10
f 6/23/10 28/22/10 29/35/10 5/43/10
f 29/35/17 28/22/17 32/28/17
f 5/43/10 29/35/10 4/7/10
f 26/41/18 17/40/18 30/44/18 31/45/18
f 27/18/8 31/46/8 30/47/8 16/17/8
f 17/30/19 23/24/19 24/37/19 30/39/19
